{"title":"Night.Catches.Us.2010.LiMiTED.720p.BRRip.x264.Feel-Free","uid":6146402,"size":1969177498,"categoryP":"video","categoryS":"hd___movies","magnet":"?xt=urn:btih:241caa1b88066c006b7c02b1ea80a7df52eff835&amp;dn=Night.Catches.Us.2010.LiMiTED.720p.BRRip.x264.Feel-Free&amp;tr=udp%3A%2F%2Ftracker.openbittorrent.com%3A80&amp;tr=udp%3A%2F%2Fopen.demonii.com%3A1337&amp;tr=udp%3A%2F%2Ftracker.coppersurfer.tk%3A6969&amp;tr=udp%3A%2F%2Fexodus.desync.com%3A6969","seeders":0,"leechers":0,"uploader":".BONE.","files":10,"time":1296690388,"description":"Genre:Drama | Romance\nLanguage:English\nIMDb:http://www.imdb.com/title/tt0775543/\nSource:720p.BluRay.x264-SiNNERS\n\n\n\nFormat : MPEG-4\nFormat profile : Base Media\nCodec ID : isom\nFile size : 1.83 GiB\nDuration : 1h 29mn\nOverall bit rate : 2 925 Kbps\nMovie name : Night.Catches.Us.2010.LiMiTED.720p.BRRip.x264.Feel-Free\n\n\nVideo\nFormat settings, CABAC : Yes\nFormat settings, ReFrames : 4 frames\nCodec ID : avc1\nCodec ID/Info : Advanced Video Coding\nDuration : 1h 29mn\nBit rate mode : Variable\nBit rate : 2 597 Kbps\nWidth : 1 280 pixels\nHeight : 688 pixels\nDisplay aspect ratio : 1.860\nFrame rate mode : Constant\nFrame rate : 23.976 fps\nColor space : YUV\nChroma subsampling : 4:2:0\nBit depth : 8 bits\nScan type : Progressive\nBits/(Pixel*Frame) : 0.123\nStream size : 1.60 GiB (88%)\nWriting library : x264\n\nAudio\nID : 2\nFormat : AAC\nFormat/Info : Advanced Audio Codec\nFormat version : Version 4\nFormat profile : LC\nCodec ID : 40\nDuration : 1h 29mn\nBit rate mode : Variable\nBit rate : 352.8 Kbps\nChannel(s) : 6 channels\nChannel positions : Front: L C R, Side: L R, LFE\nSampling rate : 48.0 KHz\nStream size : 228 MiB (12%)\n\n\nPlot:\nIn 1976, complex political and emotional forces are set in motion when a young man returns to the race-torn Philadelphia neighborhood where he came of age during the Black Power movement\n &lt;a href=&quot;\nhttp://rapidhdd.com/images/883351vlcsnap-00003.png&quot; rel=&quot;nofollow&quot; target=&quot;_NEW&quot;&gt;\nhttp://rapidhdd.com/images/883351vlcsnap-00003.png&lt;/a&gt;\n &lt;a href=&quot;\nhttp://www.rapidhdd.com/images/244601vlcsnap-00004.png&quot; rel=&quot;nofollow&quot; target=&quot;_NEW&quot;&gt;\nhttp://www.rapidhdd.com/images/244601vlcsnap-00004.png&lt;/a&gt;\n &lt;a href=&quot;\nhttp://www.rapidhdd.com/images/979409vlcsnap-00005.png&quot; rel=&quot;nofollow&quot; target=&quot;_NEW&quot;&gt;\nhttp://www.rapidhdd.com/images/979409vlcsnap-00005.png&lt;/a&gt;\n &lt;a href=&quot;\nhttp://www.rapidhdd.com/images/589880vlcsnap-00006.png&quot; rel=&quot;nofollow&quot; target=&quot;_NEW&quot;&gt;\nhttp://www.rapidhdd.com/images/589880vlcsnap-00006.png&lt;/a&gt;\n &lt;a href=&quot;\nhttp://www.rapidhdd.com/images/314810vlcsnap-00007.png&quot; rel=&quot;nofollow&quot; target=&quot;_NEW&quot;&gt;\nhttp://www.rapidhdd.com/images/314810vlcsnap-00007.png&lt;/a&gt;\n\n","torrent":{"xt":"urn:btih:241caa1b88066c006b7c02b1ea80a7df52eff835","amp;dn":"Night.Catches.Us.2010.LiMiTED.720p.BRRip.x264.Feel-Free","amp;tr":["udp%3A%2F%2Ftracker.openbittorrent.com%3A80","udp%3A%2F%2Fopen.demonii.com%3A1337","udp%3A%2F%2Ftracker.coppersurfer.tk%3A6969","udp%3A%2F%2Fexodus.desync.com%3A6969"],"infoHash":"241caa1b88066c006b7c02b1ea80a7df52eff835","infoHashBuffer":{"type":"Buffer","data":[36,28,170,27,136,6,108,0,107,124,2,177,234,128,167,223,82,239,248,53]},"announce":[],"urlList":[]}}